<svg width="16" height="16" viewBox="0 0 16 16" fill="none" xmlns="http://www.w3.org/2000/svg">
<g opacity="0.5">
<path d="M9.99998 7.33334H8.66665V4.66667C8.66665 4.48986 8.59641 4.32029 8.47139 4.19526C8.34636 4.07024 8.17679 4 7.99998 4C7.82317 4 7.6536 4.07024 7.52858 4.19526C7.40355 4.32029 7.33332 4.48986 7.33332 4.66667V8C7.33332 8.17681 7.40355 8.34638 7.52858 8.47141C7.6536 8.59643 7.82317 8.66667 7.99998 8.66667H9.99998C10.1768 8.66667 10.3464 8.59643 10.4714 8.47141C10.5964 8.34638 10.6666 8.17681 10.6666 8C10.6666 7.82319 10.5964 7.65362 10.4714 7.5286C10.3464 7.40357 10.1768 7.33334 9.99998 7.33334ZM7.99998 1.33334C6.68144 1.33334 5.39251 1.72433 4.29618 2.45687C3.19985 3.18941 2.34537 4.23061 1.84079 5.44878C1.3362 6.66695 1.20418 8.0074 1.46141 9.3006C1.71865 10.5938 2.35359 11.7817 3.28594 12.714C4.21829 13.6464 5.40617 14.2813 6.69938 14.5386C7.99259 14.7958 9.33303 14.6638 10.5512 14.1592C11.7694 13.6546 12.8106 12.8001 13.5431 11.7038C14.2757 10.6075 14.6666 9.31854 14.6666 8C14.6666 7.12452 14.4942 6.25762 14.1592 5.44878C13.8241 4.63994 13.3331 3.90501 12.714 3.28596C12.095 2.6669 11.36 2.17584 10.5512 1.84081C9.74237 1.50577 8.87546 1.33334 7.99998 1.33334V1.33334ZM7.99998 13.3333C6.94515 13.3333 5.914 13.0205 5.03694 12.4345C4.15988 11.8485 3.47629 11.0155 3.07263 10.041C2.66896 9.06644 2.56334 7.99409 2.76913 6.95952C2.97492 5.92496 3.48287 4.97465 4.22875 4.22877C4.97463 3.48289 5.92494 2.97494 6.9595 2.76915C7.99407 2.56336 9.06642 2.66898 10.041 3.07265C11.0155 3.47631 11.8485 4.1599 12.4345 5.03696C13.0205 5.91402 13.3333 6.94517 13.3333 8C13.3333 9.41449 12.7714 10.771 11.7712 11.7712C10.771 12.7714 9.41447 13.3333 7.99998 13.3333V13.3333Z" fill="#3A3A3B"/>
</g>
</svg>
