<svg width="32" height="32" viewBox="0 0 32 32" fill="none" xmlns="http://www.w3.org/2000/svg">
<rect width="32" height="32" rx="6" fill="white" fill-opacity="0.7"/>
<path d="M17.41 16L23.71 9.71C23.8983 9.5217 24.0041 9.2663 24.0041 9C24.0041 8.7337 23.8983 8.47831 23.71 8.29C23.5217 8.1017 23.2663 7.99591 23 7.99591C22.7337 7.99591 22.4783 8.1017 22.29 8.29L16 14.59L9.71 8.29C9.5217 8.1017 9.2663 7.99591 9 7.99591C8.7337 7.99591 8.4783 8.1017 8.29 8.29C8.1017 8.47831 7.99591 8.7337 7.99591 9C7.99591 9.2663 8.1017 9.5217 8.29 9.71L14.59 16L8.29 22.29C8.19627 22.383 8.12188 22.4936 8.07111 22.6154C8.02034 22.7373 7.9942 22.868 7.9942 23C7.9942 23.132 8.02034 23.2627 8.07111 23.3846C8.12188 23.5064 8.19627 23.617 8.29 23.71C8.38296 23.8037 8.49356 23.8781 8.61542 23.9289C8.73728 23.9797 8.86799 24.0058 9 24.0058C9.13201 24.0058 9.26272 23.9797 9.38458 23.9289C9.50644 23.8781 9.61704 23.8037 9.71 23.71L16 17.41L22.29 23.71C22.383 23.8037 22.4936 23.8781 22.6154 23.9289C22.7373 23.9797 22.868 24.0058 23 24.0058C23.132 24.0058 23.2627 23.9797 23.3846 23.9289C23.5064 23.8781 23.617 23.8037 23.71 23.71C23.8037 23.617 23.8781 23.5064 23.9289 23.3846C23.9797 23.2627 24.0058 23.132 24.0058 23C24.0058 22.868 23.9797 22.7373 23.9289 22.6154C23.8781 22.4936 23.8037 22.383 23.71 22.29L17.41 16Z" fill="#3A3A3B"/>
</svg>
