<svg width="82" height="33" viewBox="0 0 82 33" fill="none" xmlns="http://www.w3.org/2000/svg">
<path d="M8.272 24.168C7.872 24.168 7.56 24.056 7.336 23.832C7.128 23.608 7.024 23.288 7.024 22.872V15.264L7.576 16.848L1.648 8.616C1.472 8.376 1.392 8.128 1.408 7.872C1.424 7.6 1.528 7.376 1.72 7.2C1.928 7.008 2.2 6.912 2.536 6.912C2.792 6.912 3.024 6.976 3.232 7.104C3.456 7.232 3.664 7.432 3.856 7.704L8.608 14.304H8.032L12.784 7.704C12.992 7.416 13.192 7.216 13.384 7.104C13.576 6.976 13.816 6.912 14.104 6.912C14.44 6.912 14.696 7 14.872 7.176C15.064 7.336 15.16 7.552 15.16 7.824C15.176 8.08 15.08 8.352 14.872 8.64L8.992 16.848L9.496 15.264V22.872C9.496 23.736 9.088 24.168 8.272 24.168ZM19.6534 24.216C18.7094 24.216 17.9174 24.04 17.2774 23.688C16.6534 23.336 16.1814 22.816 15.8614 22.128C15.5574 21.424 15.4054 20.544 15.4054 19.488V13.344C15.4054 12.928 15.5094 12.624 15.7174 12.432C15.9254 12.224 16.2214 12.12 16.6054 12.12C16.9894 12.12 17.2854 12.224 17.4934 12.432C17.7174 12.624 17.8294 12.928 17.8294 13.344V19.512C17.8294 20.456 18.0214 21.152 18.4054 21.6C18.7894 22.048 19.3974 22.272 20.2294 22.272C21.1414 22.272 21.8774 21.968 22.4374 21.36C23.0134 20.736 23.3014 19.92 23.3014 18.912V13.344C23.3014 12.928 23.4054 12.624 23.6134 12.432C23.8214 12.224 24.1254 12.12 24.5254 12.12C24.9094 12.12 25.2054 12.224 25.4134 12.432C25.6214 12.624 25.7254 12.928 25.7254 13.344V22.944C25.7254 23.76 25.3334 24.168 24.5494 24.168C24.1814 24.168 23.8934 24.064 23.6854 23.856C23.4774 23.632 23.3734 23.328 23.3734 22.944V20.904L23.6854 21.432C23.3654 22.328 22.8534 23.016 22.1494 23.496C21.4454 23.976 20.6134 24.216 19.6534 24.216ZM30.3895 24.168C30.0055 24.168 29.7095 24.064 29.5015 23.856C29.2935 23.632 29.1895 23.328 29.1895 22.944V13.344C29.1895 12.944 29.2935 12.64 29.5015 12.432C29.7095 12.224 29.9975 12.12 30.3655 12.12C30.7495 12.12 31.0375 12.224 31.2295 12.432C31.4375 12.64 31.5415 12.944 31.5415 13.344V15.312L31.2775 14.784C31.5975 13.936 32.0935 13.272 32.7655 12.792C33.4375 12.312 34.2455 12.072 35.1895 12.072C36.1655 12.072 36.9575 12.304 37.5655 12.768C38.1735 13.232 38.5895 13.944 38.8135 14.904H38.4775C38.7815 14.024 39.3015 13.336 40.0375 12.84C40.7735 12.328 41.6295 12.072 42.6055 12.072C43.5015 12.072 44.2375 12.248 44.8135 12.6C45.3895 12.936 45.8215 13.456 46.1095 14.16C46.3975 14.848 46.5415 15.72 46.5415 16.776V22.944C46.5415 23.328 46.4295 23.632 46.2055 23.856C45.9975 24.064 45.7015 24.168 45.3175 24.168C44.9335 24.168 44.6375 24.064 44.4295 23.856C44.2215 23.632 44.1175 23.328 44.1175 22.944V16.896C44.1175 15.904 43.9415 15.176 43.5895 14.712C43.2535 14.248 42.6935 14.016 41.9095 14.016C41.0295 14.016 40.3335 14.32 39.8215 14.928C39.3095 15.536 39.0535 16.376 39.0535 17.448V22.944C39.0535 23.328 38.9495 23.632 38.7415 23.856C38.5335 24.064 38.2375 24.168 37.8535 24.168C37.4695 24.168 37.1655 24.064 36.9415 23.856C36.7335 23.632 36.6295 23.328 36.6295 22.944V16.896C36.6295 15.904 36.4615 15.176 36.1255 14.712C35.7895 14.248 35.2295 14.016 34.4455 14.016C33.5655 14.016 32.8695 14.32 32.3575 14.928C31.8615 15.536 31.6135 16.376 31.6135 17.448V22.944C31.6135 23.76 31.2055 24.168 30.3895 24.168ZM51.1786 24.168C50.7946 24.168 50.4986 24.064 50.2906 23.856C50.0826 23.632 49.9786 23.328 49.9786 22.944V13.344C49.9786 12.944 50.0826 12.64 50.2906 12.432C50.4986 12.224 50.7866 12.12 51.1546 12.12C51.5386 12.12 51.8266 12.224 52.0186 12.432C52.2266 12.64 52.3306 12.944 52.3306 13.344V15.312L52.0666 14.784C52.3866 13.936 52.8826 13.272 53.5546 12.792C54.2266 12.312 55.0346 12.072 55.9786 12.072C56.9546 12.072 57.7466 12.304 58.3546 12.768C58.9626 13.232 59.3786 13.944 59.6026 14.904H59.2666C59.5706 14.024 60.0906 13.336 60.8266 12.84C61.5626 12.328 62.4186 12.072 63.3946 12.072C64.2906 12.072 65.0266 12.248 65.6026 12.6C66.1786 12.936 66.6106 13.456 66.8986 14.16C67.1866 14.848 67.3306 15.72 67.3306 16.776V22.944C67.3306 23.328 67.2186 23.632 66.9946 23.856C66.7866 24.064 66.4906 24.168 66.1066 24.168C65.7226 24.168 65.4266 24.064 65.2186 23.856C65.0106 23.632 64.9066 23.328 64.9066 22.944V16.896C64.9066 15.904 64.7306 15.176 64.3786 14.712C64.0426 14.248 63.4826 14.016 62.6986 14.016C61.8186 14.016 61.1226 14.32 60.6106 14.928C60.0986 15.536 59.8426 16.376 59.8426 17.448V22.944C59.8426 23.328 59.7386 23.632 59.5306 23.856C59.3226 24.064 59.0266 24.168 58.6426 24.168C58.2586 24.168 57.9546 24.064 57.7306 23.856C57.5226 23.632 57.4186 23.328 57.4186 22.944V16.896C57.4186 15.904 57.2506 15.176 56.9146 14.712C56.5786 14.248 56.0186 14.016 55.2346 14.016C54.3546 14.016 53.6586 14.32 53.1466 14.928C52.6506 15.536 52.4026 16.376 52.4026 17.448V22.944C52.4026 23.76 51.9946 24.168 51.1786 24.168ZM73.3624 28.488C73.0744 28.488 72.8344 28.408 72.6424 28.248C72.4664 28.104 72.3624 27.904 72.3304 27.648C72.3144 27.408 72.3624 27.144 72.4744 26.856L74.1064 23.184V24.216L69.6184 13.776C69.5064 13.488 69.4664 13.216 69.4984 12.96C69.5304 12.704 69.6504 12.504 69.8584 12.36C70.0664 12.2 70.3464 12.12 70.6984 12.12C71.0024 12.12 71.2424 12.192 71.4184 12.336C71.5944 12.48 71.7544 12.728 71.8984 13.08L75.5224 22.032H74.8504L78.5224 13.08C78.6664 12.712 78.8344 12.464 79.0264 12.336C79.2184 12.192 79.4824 12.12 79.8184 12.12C80.1064 12.12 80.3304 12.2 80.4904 12.36C80.6664 12.504 80.7704 12.704 80.8024 12.96C80.8504 13.2 80.8104 13.464 80.6824 13.752L74.6824 27.552C74.5224 27.92 74.3384 28.168 74.1304 28.296C73.9384 28.424 73.6824 28.488 73.3624 28.488Z" fill="#2EACAA"/>
<circle cx="75" cy="9" r="1" fill="#ED6A32"/>
<circle cx="51.25" cy="23.25" r="1.25" fill="#ED6A32"/>
<path d="M45.5 23.5V17" stroke="#ED6A32" stroke-width="2.8" stroke-linecap="round"/>
<path d="M73.5 27.5L76.5 21" stroke="#ED6A32" stroke-width="2.5" stroke-linecap="round"/>
<path d="M8 15L2 8" stroke="#ED6A32" stroke-width="2.8" stroke-linecap="round"/>
</svg>
